<svg xmlns="http://www.w3.org/2000/svg" viewBox="0 0 512 512">
  <defs>
    <linearGradient id="bg" x1="0%" x2="100%" y1="0%" y2="100%">
      <stop offset="0%" stop-color="#0a84ff"/>
      <stop offset="58%" stop-color="#2f80ed"/>
      <stop offset="100%" stop-color="#28c7a7"/>
    </linearGradient>
    <linearGradient id="page" x1="0%" x2="100%" y1="0%" y2="100%">
      <stop offset="0%" stop-color="#ffffff"/>
      <stop offset="100%" stop-color="#e4f2ff"/>
    </linearGradient>
  </defs>
  <rect width="512" height="512" rx="120" fill="#101827"/>
  <rect x="86" y="90" width="340" height="332" rx="72" fill="url(#bg)"/>
  <path d="M180 164c20-20 42-30 76-30 38 0 64 14 84 38v170c-18-18-42-28-78-28-34 0-60 10-82 28V164z" fill="url(#page)"/>
  <path d="M180 164c16 16 34 24 58 24 38 0 62-10 102-54" fill="none" stroke="#08111f" stroke-width="18" stroke-linecap="round" opacity="0.18"/>
  <path d="M180 336c24-22 50-32 88-32 32 0 56 8 72 22" fill="none" stroke="#08111f" stroke-width="16" stroke-linecap="round" opacity="0.16"/>
  <path d="M338 182l44 28-44 28" fill="none" stroke="#08111f" stroke-width="18" stroke-linecap="round" stroke-linejoin="round"/>
</svg>
